<?xml version="1.0" encoding="utf-8"?>
<!-- Generator: Adobe Illustrator 22.0.0, SVG Export Plug-In . SVG Version: 6.00 Build 0)  -->
<svg version="1.1" id="Ebene_1" xmlns="http://www.w3.org/2000/svg" xmlns:xlink="http://www.w3.org/1999/xlink" x="0px" y="0px"
	 viewBox="0 0 27 32" style="enable-background:new 0 0 27 32;" xml:space="preserve">
<title>ic_home</title>
<desc>Created with Sketch.</desc>
<g id="OPt-2">
	<g id="prog2_pro3_Mobile-Portrait_opt2-Copy-2" transform="translate(-10.000000, -15.000000)">
		<g id="nav">
			<g id="Group-6">
				<g id="ic_home_1_" transform="translate(14.000000, 17.000000)">
					<g id="Group_1_" transform="translate(9.600000, 12.000000) scale(-1, 1) translate(-9.600000, -12.000000) ">
						<path id="Shape_5_" d="M1.5,8.9l0.9,0.7l1.4,1.1c0.2-1,0.8-1.8,1.5-2.3L2.6,6.2L3.5,5c0.4-0.5,0.3-1.1-0.2-1.5L1.2,6.3
							C0.9,6.7,0.8,7.2,0.9,7.7C0.9,8.2,1.2,8.6,1.5,8.9L1.5,8.9z"/>
						<path id="Shape_4_" d="M10.3,18.6c-3.1-1.6-5.8-2.1-6.5-1c-0.6,0.9,0.4,2.6,2.3,4.4l-1.8,2.9H3.1c-0.6,0-1,0.5-1,1.1h1.6h2.1
							l0.7-1.1l1-1.7l0.4-0.7c-0.1-0.2-0.2-0.5-0.2-0.8c0-0.9,0.7-1.6,1.6-1.6h0.1L10.3,18.6L10.3,18.6z"/>
						<path id="Shape_3_" d="M19,8.5c-0.2-0.8-0.8-1.4-1.7-1.4c-0.2,0-0.5,0-0.7,0.1c-0.6,0.3-1,0.9-1,1.6V17c0,0.6-0.5,1.1-1,1.1
							c-0.4,0-0.8-0.3-0.9-0.6v-0.1l-1-2.4l1.9-6.5l0,0c0-0.1,0-0.1,0.1-0.2c0.5-2.6-0.7-5.2-3-6.3L7.2,3.6C6.7,3.8,6.4,4.4,6.6,4.9
							l1.1-0.4C8.1,4.3,8.6,4.6,8.8,5C9,5.5,8.7,6,8.3,6.1L7.1,6.6c0.2,0.5,0.8,0.8,1.3,0.6l1.2-0.5c0.1,0.5-0.2,1-0.7,1.2L6.7,8.8
							C5.7,9.2,5,10.2,5,11.4v0.1v0.1l0,0H1.2v-1.4c0-0.4-0.5-0.7-0.8-0.9L0.2,9v3.5c0,1,0.8,1.8,1.8,1.8h4.1c0.4,0,0.7,0,1.1,0.1
							l0,0c0,0,0,0,0.1,0l0,0c1.8,0.5,3.2,2.1,3.4,4v0.1c0,0.1,0,0.2,0,0.3c0,1.1-0.4,2.1-1,2.9c0,0.1-0.1,0.1-0.1,0.2
							c-0.1,0.2-0.2,0.4-0.2,0.7c0,0.6,0.5,1.2,1.1,1.2c0.2,0,0.4-0.1,0.6-0.2l2.3-1.4c0.3,0.2,0.5,0.5,0.5,0.9
							c0,0.3-0.1,0.5-0.3,0.7l-1,1.1h-1.2l0,0h-0.1c-0.6,0-1,0.5-1,1.1h2.1l0,0h1.3c0-1,0.8-1.8,1.8-1.8v-3.1
							c-0.8-0.2-1.4-0.9-1.4-1.8v-0.1c0.1,0,0.2,0,0.3,0c0.4,0,0.8-0.1,1.1-0.3c0.6-0.4,1-1.1,1-1.9V8.8c0-0.4,0.3-0.7,0.7-0.7
							c0.4,0,0.7,0.3,0.7,0.7c-0.5,0.3-0.8,0.9-0.8,1.5c0,1,0.8,1.8,1.8,1.8V8.8C19,8.7,19,8.6,19,8.5L19,8.5z"/>
					</g>
				</g>
			</g>
		</g>
	</g>
</g>
</svg>
